<?xml version="1.0" encoding="UTF-8"?>
<svg width="153px" height="227px" viewBox="0 0 153 227" version="1.1" xmlns="http://www.w3.org/2000/svg" xmlns:xlink="http://www.w3.org/1999/xlink">
    <title>Untitled</title>
    <g id="Page-1" stroke="none" stroke-width="1" fill="none" fill-rule="evenodd">
        <g id="Group" transform="translate(76.542710, 113.540547) scale(-1, 1) rotate(-180.000000) translate(-76.542710, -113.540547) translate(0.185419, 0.081094)" fill="#000000" fill-rule="nonzero">
            <path d="M21.4145806,224 C19.5145806,222.3 17.3145806,219.2 16.6145806,217.2 C14.6145806,211.3 15.1145806,197.5 17.6145806,191.1 L19.7145806,185.7 L17.7145806,182.8 C15.1145806,179.3 14.2145806,173 15.7145806,170.2 C16.6145806,168.5 16.4145806,167.3 14.8145806,164.3 C12.5145806,159.9 12.2145806,155.6 14.2145806,151.9 C15.3145806,149.7 15.3145806,148.9 14.2145806,146.9 C12.0145806,142.9 12.5145806,136.6 15.2145806,133.3 C16.9145806,131.3 17.4145806,129.9 16.7145806,128.9 C15.3145806,126.7 15.6145806,120.2 17.3145806,116.9 C18.7145806,114.2 18.7145806,113.7 17.3145806,111.8 C15.2145806,108.7 15.4145806,102.1 17.8145806,98.2 C19.7145806,95.2 19.7145806,94.7 18.3145806,92.7 C17.5145806,91.5 16.8145806,89.2 16.8145806,87.5 C16.7145806,85.1 14.9145806,82.6 8.31458061,75.5 C-1.18541939,65.4 -1.28541939,65.3 1.81458061,54.2 C7.61458061,33.4 20.8145806,18 41.3145806,8 C53.6145806,2.1 62.5145806,0 76.1145806,0 C105.814581,0 131.614581,15.9 145.114581,42.5 C146.514581,45.3 148.714581,51.7 150.114581,56.8 L152.714581,66 L143.814581,75.3 C138.714581,80.6 134.814581,85.4 134.814581,86.5 C134.814581,87.6 134.014581,90.1 132.914581,92 C131.114581,95.4 131.114581,95.5 133.114581,98.2 C135.514581,101.5 135.714581,107.4 133.414581,111.7 C132.514581,113.6 132.214581,115.1 132.814581,115.5 C134.614581,116.6 135.814581,123.4 134.814581,126.8 C134.114581,129.6 134.314581,130.7 136.414581,133.7 C139.214581,137.8 139.614581,143.5 137.314581,146.8 C136.114581,148.5 136.014581,149.4 136.814581,151 C138.614581,154.3 138.214581,160.6 136.014581,164.3 C134.714581,166.5 134.314581,168.2 134.914581,169.1 C136.614581,171.8 135.914581,178.6 133.514581,182.1 L131.214581,185.5 L133.714581,191.5 C136.714581,199 137.014581,211.1 134.314581,217.8 C130.914581,226.2 123.914581,229.2 117.214581,225.1 C114.214581,223.3 109.814581,216 109.814581,212.9 C109.814581,209.9 108.514581,210.2 104.714581,214.2 C100.914581,218.3 100.814581,218.3 94.8145806,217.7 C89.2145806,217.2 88.6145806,217.4 85.7145806,220.1 C80.2145806,225.2 71.4145806,225.2 65.5145806,220 C62.6145806,217.5 61.7145806,217.3 57.5145806,217.7 C52.0145806,218.4 47.6145806,216.8 44.8145806,213.2 C42.5145806,210.3 42.7145806,210.1 40.4145806,216.2 C36.6145806,226.4 28.1145806,229.8 21.4145806,224 Z M35.9145806,214.5 L39.4145806,207.6 L36.0145806,205.8 C34.1145806,204.9 32.1145806,204.3 31.7145806,204.6 C31.2145806,204.9 30.8145806,207.1 30.8145806,209.6 C30.8145806,213.3 30.5145806,214 28.9145806,214 C26.2145806,214 25.6145806,211.3 26.8145806,205 C28.4145806,196.7 26.8145806,188.1 23.7145806,188 C23.3145806,188 22.3145806,190.6 21.4145806,193.8 C18.1145806,205.5 20.1145806,218.5 25.6145806,221.4 C29.7145806,223.5 32.0145806,222 35.9145806,214.5 Z M127.614581,219.7 C130.914581,216.2 132.514581,207.4 131.114581,199.8 C129.614581,191.3 128.214581,187.9 126.514581,188.6 C124.014581,189.5 123.214581,196.8 124.414581,207.8 C125.014581,214.1 125.014581,214.2 122.714581,213.8 C120.714581,213.6 120.414581,213 120.614581,210.6 C120.814581,209 120.714581,206.7 120.414581,205.4 L119.814581,203.2 L115.914581,205.2 L111.914581,207.2 L114.414581,212.8 C115.814581,215.9 117.614581,219.2 118.514581,220.2 C120.814581,222.7 125.014581,222.5 127.614581,219.7 Z M78.9145806,219 C79.4145806,219 81.6145806,217.4 83.8145806,215.4 C87.8145806,211.8 87.9145806,211.7 91.9145806,213 C97.5145806,214.9 102.214581,212.6 104.714581,206.7 C106.214581,203.3 107.114581,202.4 109.314581,202.2 C110.814581,202.1 113.214581,201.3 114.814581,200.4 C117.514581,198.7 121.414581,193.3 120.514581,192.4 C120.214581,192.1 118.014581,192.5 115.514581,193.4 C110.814581,195 95.9145806,197.2 94.7145806,196.4 C94.4145806,196.2 93.8145806,197.6 93.5145806,199.6 C92.2145806,207.3 83.9145806,214 75.7145806,214 C67.0145806,214 58.4145806,207.3 57.1145806,199.6 C56.6145806,196.1 56.4145806,196 52.2145806,196 C48.1145806,196 36.2145806,193.9 32.6145806,192.5 C29.8145806,191.4 30.4145806,194.5 33.6145806,198.1 C35.7145806,200.5 37.6145806,201.5 40.8145806,201.9 C44.8145806,202.4 45.3145806,202.8 45.9145806,205.9 C46.8145806,210.3 49.6145806,212.9 54.1145806,213.7 C56.9145806,214.1 58.3145806,213.8 59.8145806,212.5 C61.9145806,210.6 63.1145806,211.1 66.6145806,215.2 C69.0145806,218 74.1145806,220.2 76.6145806,219.4 C77.4145806,219.2 78.4145806,219 78.9145806,219 Z M82.9145806,206.7 C87.2145806,203.8 88.8145806,200.7 88.8145806,194.9 C88.8145806,181.8 70.7145806,177 63.8145806,188.3 C61.5145806,191.9 61.2145806,198.3 63.1145806,202 C65.0145806,205.9 70.5145806,209 75.3145806,209 C78.0145806,209 80.7145806,208.2 82.9145806,206.7 Z M58.3145806,188.3 C60.4145806,183.3 62.5145806,181.1 67.3145806,178.9 C74.8145806,175.4 83.3145806,177.1 89.1145806,183.2 C91.1145806,185.3 92.8145806,187.9 92.8145806,189 C92.8145806,190 93.2145806,191.1 93.8145806,191.5 C94.3145806,191.8 99.3145806,191.4 104.914581,190.5 C125.514581,187.4 135.014581,179.7 129.914581,169.9 C127.314581,165 127.314581,165.1 130.214581,164 C134.514581,162.4 134.614581,155.5 130.614581,149.8 C129.514581,148.3 129.714581,147.8 131.614581,146.5 C133.314581,145.3 133.814581,143.9 133.814581,140.8 C133.814581,137.4 133.214581,136.2 130.214581,133.5 C126.714581,130.3 126.414581,128 129.414581,128 C130.414581,128 130.814581,126.8 130.814581,123.9 C130.814581,120.6 130.214581,119.2 127.714581,116.9 C124.514581,114 124.314581,111 127.214581,111 C129.114581,111 130.814581,107.9 130.814581,104.5 C130.814581,102.7 129.614581,100.7 127.314581,98.5 C123.814581,95.4 123.814581,95.3 125.714581,93.9 C126.914581,93.1 128.614581,90.3 129.514581,87.5 C130.514581,84.8 132.014581,81.8 133.014581,81 C133.914581,80.2 137.414581,76.2 140.914581,72.1 L147.214581,64.7 L145.014581,56.1 C139.414581,34.6 123.014581,17 100.514581,8.6 C97.1145806,7.3 92.4145806,5.9 90.1145806,5.5 L85.9145806,4.8 L86.1145806,8.4 C86.2145806,10.8 86.8145806,12 87.8145806,12 C91.0145806,12 101.914581,18.1 105.714581,22 C109.814581,26.3 113.014581,33.3 114.314581,40.8 C114.814581,44 115.614581,45.4 117.214581,46 C126.014581,49.3 127.314581,62.7 119.314581,67 C111.614581,71.1 103.014581,66.5 102.114581,57.9 C101.614581,52.6 104.414581,47.4 108.314581,46.4 C110.014581,46 110.714581,45.2 110.414581,44.1 C110.214581,43.2 109.714581,40.7 109.314581,38.6 L108.714581,34.7 L106.314581,38.6 C104.614581,41.4 104.314581,42.8 105.014581,43.7 C106.714581,45.8 103.314581,46.4 100.414581,44.5 C97.1145806,42.3 97.1145806,42 100.814581,38.5 C102.514581,36.9 103.814581,35.3 103.814581,35 C103.814581,34.6 102.414581,32.5 100.714581,30.4 C93.7145806,21.6 95.3145806,20 103.014581,28.1 C108.214581,33.6 109.014581,33.7 105.714581,28.4 C103.514581,24.7 97.0145806,19.8 91.2145806,17.4 C87.2145806,15.7 85.4145806,16.3 88.2145806,18.3 C89.8145806,19.5 91.5145806,24.8 98.9145806,53 C101.414581,62.5 105.214581,74 107.214581,77.9 C108.114581,79.5 108.814581,81.9 108.814581,83 C108.814581,86.4 105.714581,85 104.414581,81 C103.514581,78.2 101.714581,76.6 94.8145806,72.3 C90.2145806,69.4 86.1145806,67 85.7145806,67 C85.3145806,67 83.3145806,69.2 81.3145806,72 C79.3145806,74.7 77.0145806,77 76.2145806,77 C74.6145806,77 71.9145806,74.5 67.8145806,69.3 L65.3145806,66.1 L56.8145806,71.5 C52.1145806,74.5 47.3145806,77.9 46.2145806,79.1 C43.6145806,81.7 42.3145806,80.2 44.0145806,76.5 C45.1145806,74 53.9145806,67.6 62.5145806,63 C69.9145806,59.1 70.7145806,58 69.8145806,52.3 C69.3145806,49.5 68.4145806,40.2 67.7145806,31.6 C67.0145806,23 66.0145806,16 65.6145806,16 C65.2145806,16 64.8145806,16.8 64.8145806,17.8 C64.8145806,19.4 63.5145806,24.5 58.3145806,43 C55.8145806,51.6 53.6145806,56.3 52.6145806,54.8 C51.1145806,52.4 51.8145806,48.8 57.4145806,30.4 C60.5145806,20.2 62.8145806,11.7 62.5145806,11.4 C62.3145806,11.2 61.3145806,12.2 60.3145806,13.7 C59.3145806,15.2 54.4145806,21.1 49.5145806,26.8 C40.9145806,36.7 37.8145806,38.8 37.0145806,35 C36.7145806,33.2 61.4145806,7.6 62.7145806,8.4 C63.2145806,8.7 63.8145806,8.1 64.1145806,7 C64.8145806,4.3 63.0145806,4.4 53.1145806,7.9 C36.9145806,13.5 23.7145806,23.4 15.2145806,36.1 C9.91458061,44.1 7.51458061,49.8 5.81458061,58.7 L4.61458061,64.8 L11.9145806,73.3 C16.0145806,78 19.5145806,81.9 19.8145806,81.9 C20.1145806,82 20.8145806,80.4 21.4145806,78.5 C22.3145806,75.5 22.2145806,74.3 20.6145806,71.1 C18.9145806,67.7 18.9145806,67 20.2145806,63.3 C23.4145806,54.1 29.4145806,45.5 33.5145806,43.9 C36.9145806,42.6 43.4145806,44.5 46.5145806,47.7 C48.8145806,50 49.0145806,50.7 48.6145806,56.8 C47.6145806,70.3 40.3145806,79.9 32.0145806,78.7 C30.0145806,78.4 27.5145806,77.9 26.5145806,77.5 C24.9145806,76.8 24.7145806,77.2 25.0145806,81.1 C25.3145806,84.8 25.7145806,85.7 28.3145806,86.9 C29.9145806,87.7 33.2145806,88.4 35.6145806,88.5 C40.4145806,88.6 42.2145806,90.3 40.7145806,93.2 C39.5145806,95.4 37.9145806,95.5 34.2145806,93.5 C32.6145806,92.7 30.5145806,92 29.6145806,92 C28.6145806,92 26.0145806,90.4 23.8145806,88.4 C21.6145806,86.4 19.8145806,85 19.8145806,85.2 C19.8145806,87.3 22.4145806,92.2 23.9145806,93.1 C26.4145806,94.4 26.3145806,95.8 23.4145806,98.1 C19.0145806,101.6 19.2145806,111 23.7145806,111 C26.6145806,111 27.1145806,113.8 24.4145806,115.5 C19.5145806,118.7 18.5145806,127.2 22.8145806,128.3 C25.7145806,129 25.3145806,130.4 21.4145806,133.4 C19.5145806,134.8 17.7145806,137.3 17.3145806,138.8 C16.6145806,142.1 18.3145806,147.4 19.8145806,146.5 C21.9145806,145.2 21.9145806,149 19.9145806,151.6 C16.6145806,155.8 17.2145806,164 20.8145806,164 C23.7145806,164 24.1145806,165.8 21.9145806,168.6 C19.0145806,172.2 19.2145806,177.1 22.3145806,180.8 C25.8145806,185 31.5145806,187.7 40.5145806,189.4 C47.3145806,190.8 49.8145806,191.2 55.5145806,191.9 C56.2145806,191.9 57.5145806,190.3 58.3145806,188.3 Z M37.6145806,72.5 C39.5145806,70.9 41.2145806,67.8 42.6145806,63.5 C46.0145806,53.4 45.3145806,50.1 39.6145806,48.1 C36.8145806,47.1 36.0145806,47.2 33.8145806,48.8 C31.0145806,50.9 23.8145806,64.1 23.8145806,67.1 C23.8145806,70 29.1145806,75 32.1145806,75 C33.5145806,75 36.0145806,73.9 37.6145806,72.5 Z M99.4145806,68.5 C98.9145806,67.2 90.8145806,38.7 87.1145806,25.1 C86.3145806,22.2 85.5145806,20 85.2145806,20.3 C84.9145806,20.5 83.8145806,28.4 82.8145806,37.6 C81.7145806,46.9 80.6145806,55.3 80.4145806,56.2 C80.2145806,57.3 81.3145806,58.7 83.7145806,60.3 C85.7145806,61.6 89.8145806,64.3 92.8145806,66.3 C98.9145806,70.3 100.314581,70.7 99.4145806,68.5 Z M117.814581,62 C120.814581,59 120.514581,53.7 117.214581,51.1 C113.614581,48.3 112.214581,48.5 108.614581,52 C106.214581,54.5 105.714581,55.6 106.214581,57.8 C107.614581,63.5 114.014581,65.8 117.814581,62 Z" id="Shape"></path>
            <path d="M73.5145806,202.3 C73.1145806,202 72.8145806,200.7 72.8145806,199.5 C72.8145806,197.9 72.2145806,197.4 70.6145806,197.4 C68.9145806,197.5 68.2145806,196.9 68.0145806,195.3 C67.7145806,193.4 68.1145806,193 70.6145806,193 C72.9145806,193 73.4145806,192.6 73.4145806,190.8 C73.3145806,189.1 73.9145806,188.4 75.6145806,188.2 C77.4145806,187.9 77.8145806,188.3 77.8145806,190.4 C77.8145806,192.4 78.4145806,192.9 80.6145806,193.2 C82.5145806,193.4 83.3145806,194.1 83.3145806,195.5 C83.3145806,197 82.6145806,197.5 80.6145806,197.5 C78.2145806,197.4 77.8145806,197.8 77.8145806,200.2 C77.8145806,202.2 77.3145806,203 76.0145806,203 C75.0145806,203 73.8145806,202.7 73.5145806,202.3 Z" id="Path"></path>
            <path d="M45.8145806,177.9 C45.8145806,172.9 46.1145806,172.4 50.4145806,168.3 C54.7145806,164.3 59.7145806,162 64.1145806,162 C66.5145806,162 73.1145806,164.8 74.0145806,166.2 C74.5145806,167.1 75.2145806,167 76.5145806,165.8 C79.2145806,163.4 85.5145806,161.7 89.1145806,162.4 C94.3145806,163.4 103.114581,170.1 104.614581,174.3 C106.514581,179.2 105.514581,183.2 102.514581,182.8 C100.814581,182.6 100.414581,181.9 100.614581,179.9 C100.914581,176.7 99.3145806,172 97.9145806,172 C97.3145806,172 95.2145806,170.9 93.2145806,169.5 C91.2145806,168.1 88.1145806,167 86.4145806,167 C83.1145806,167 76.8145806,170.3 76.8145806,172 C76.8145806,173.7 74.0145806,173.1 72.6145806,171.2 C69.2145806,166.4 62.6145806,165.7 56.1145806,169.5 C51.9145806,172 51.1145806,173.4 50.6145806,179.5 C50.4145806,181.7 49.7145806,182.6 48.1145806,182.8 C46.0145806,183.1 45.8145806,182.8 45.8145806,177.9 Z" id="Path"></path>
            <path d="M38.8145806,159.8 C31.0145806,156.9 33.1145806,144 41.3145806,144 C44.7145806,144 49.8145806,149 49.8145806,152.3 C49.8145806,157.7 43.9145806,161.7 38.8145806,159.8 Z M44.3145806,156 C45.1145806,154.7 43.0145806,152 41.3145806,152 C39.8145806,152 38.5145806,154.7 39.4145806,156.1 C40.1145806,157.3 43.5145806,157.2 44.3145806,156 Z" id="Shape"></path>
            <path d="M103.814581,158 C100.914581,155.1 101.114581,149 104.114581,146.2 C108.414581,142.2 115.014581,144.2 117.114581,150.2 C118.014581,152.6 116.014581,157.8 113.814581,159 C110.714581,160.6 105.914581,160.1 103.814581,158 Z M111.614581,154.7 C112.014581,152.7 109.114581,151.3 107.614581,152.8 C106.114581,154.3 107.514581,157.2 109.514581,156.8 C110.514581,156.6 111.414581,155.7 111.614581,154.7 Z" id="Shape"></path>
            <path d="M90.5145806,150.4 C90.2145806,150 90.5145806,148.5 91.3145806,146.9 C93.7145806,142.4 93.3145806,132 90.5145806,127.9 C86.0145806,121.1 75.9145806,118.3 68.1145806,121.5 C59.0145806,125.3 55.8145806,132.8 58.2145806,144.8 C58.9145806,148.6 58.8145806,149 56.9145806,149 C53.7145806,149 52.6145806,145.5 52.9145806,137.1 C53.4145806,127 56.2145806,122.4 64.3145806,118.5 C69.3145806,116 70.7145806,115.8 77.4145806,116.2 C83.6145806,116.6 85.6145806,117.2 89.0145806,119.6 C94.9145806,123.7 97.8145806,129.7 97.8145806,137.7 C97.8145806,145.3 95.7145806,151 93.0145806,151 C92.0145806,151 90.9145806,150.7 90.5145806,150.4 Z" id="Path"></path>
            <path d="M66.1145806,146.3 C65.5145806,144.7 66.4145806,143.6 71.5145806,140 C73.2145806,138.8 73.5145806,137.8 73.1145806,135.3 C72.4145806,131.2 69.8145806,130.9 67.0145806,134.7 C65.0145806,137.4 62.8145806,137.2 62.8145806,134.1 C62.8145806,131.4 67.0145806,128 70.6145806,128 C72.3145806,128 73.9145806,128.4 74.2145806,128.9 C74.6145806,129.4 76.0145806,129.4 77.6145806,128.8 C81.4145806,127.3 85.4145806,128.5 87.4145806,131.5 C88.7145806,133.5 88.8145806,134.3 87.8145806,135.5 C86.0145806,137.7 84.9145806,137.4 83.8145806,134.4 C83.1145806,132.5 82.2145806,131.9 80.5145806,132.2 C78.8145806,132.4 78.2145806,133.2 78.0145806,136 C77.8145806,139.1 78.2145806,139.8 81.3145806,141.8 C83.6145806,143.2 84.8145806,144.7 84.6145806,145.8 C84.1145806,148.3 80.8145806,148.5 79.2145806,146.1 C77.3145806,143.5 74.6145806,143.4 72.3145806,146 C70.1145806,148.4 67.0145806,148.6 66.1145806,146.3 Z" id="Path"></path>
            <path d="M33.4145806,109.4 C32.6145806,107.4 37.9145806,102 40.6145806,102 C43.1145806,102 45.2145806,104.5 44.4145806,106.5 C44.0145806,107.7 43.4145806,107.9 41.8145806,107 C40.2145806,106.1 39.6145806,106.4 38.2145806,108.5 C36.3145806,111.3 34.3145806,111.7 33.4145806,109.4 Z" id="Path"></path>
            <path d="M111.814581,108 C111.014581,106.5 110.114581,106.1 108.214581,106.6 C105.914581,107.2 105.714581,107 106.014581,104.9 C106.514581,101.2 111.914581,101 114.614581,104.5 C116.814581,107.2 116.614581,110 114.214581,110 C113.514581,110 112.414581,109.1 111.814581,108 Z" id="Path"></path>
            <path d="M45.8145806,99.2 C45.8145806,95.8 49.1145806,93.9 54.3145806,94.2 C59.6145806,94.5 62.3145806,96.9 60.0145806,99.2 C59.0145806,100.2 58.3145806,100.2 56.8145806,99.2 C54.2145806,97.6 52.3145806,97.7 48.8145806,99.5 C46.0145806,101 45.8145806,100.9 45.8145806,99.2 Z" id="Path"></path>
            <path d="M101.414581,99.4 C99.1145806,97.8 95.2145806,97.5 94.3145806,99 C93.3145806,100.6 90.8145806,100.2 90.1145806,98.4 C88.6145806,94.3 98.9145806,92.2 102.214581,95.9 C103.214581,97 103.814581,98.5 103.614581,99.4 C103.314581,100.7 103.114581,100.7 101.414581,99.4 Z" id="Path"></path>
            <path d="M83.8145806,92 C79.5145806,89.7 73.7145806,89.5 69.7145806,91.6 C66.1145806,93.4 65.2145806,93 66.7145806,90.2 C69.8145806,84.3 83.4145806,85.6 86.8145806,92 C88.1145806,94.4 88.2145806,94.4 83.8145806,92 Z" id="Path"></path>
            <path d="M109.814581,92.8 C109.814581,90.5 111.214581,89.8 114.014581,90.9 C116.114581,91.8 116.114581,91.9 114.314581,91.9 C113.114581,92 111.714581,92.5 111.014581,93.2 C110.114581,94.1 109.814581,94 109.814581,92.8 Z" id="Path"></path>
            <path d="M121.514581,86.3 C117.414581,83.4 116.814581,82 119.614581,82 C120.614581,82 122.914581,83.6 124.814581,85.5 C128.914581,89.7 127.014581,90.2 121.514581,86.3 Z" id="Path"></path>
            <path d="M129.314581,74.2 C129.914581,68.2 129.714581,67.3 127.914581,65.6 C125.714581,63.6 125.014581,60 126.914581,60 C129.114581,60 133.814581,64.2 133.814581,66.2 C133.814581,71.5 131.414581,81 130.014581,81 C128.914581,81 128.714581,79.7 129.314581,74.2 Z" id="Path"></path>
            <path d="M45.0145806,42.8 C43.3145806,41.1 43.5145806,38.3 45.4145806,37.6 C47.4145806,36.8 51.8145806,39.5 51.8145806,41.4 C51.8145806,43.9 47.0145806,44.8 45.0145806,42.8 Z" id="Path"></path>
            <path d="M111.014581,58.8 C109.414581,57.2 109.514581,56.5 111.314581,54.6 C114.114581,51.9 118.214581,55.6 115.714581,58.6 C114.314581,60.3 112.614581,60.4 111.014581,58.8 Z" id="Path"></path>
        </g>
    </g>
</svg>